# xmcd
#
# Track frame offsets: 
#        150
#        20037
#        38320
#        65550
#        83535
#        100815
#        122130
#        139210
#        149757
#        169420
#        186155
#        211487
#        250987
#        262722
#
# Disc length: 3965 seconds
#
# Revision: 2
# Processed by: cddbd v1.5.2PL0 Copyright (c) Steve Scherf et al.
# Submitted via: ExactAudioCopy v1.3
#
DISCID=c90f7b0e
DTITLE=EL TRI - Un Cuarto De Siglo [CD 2)
DYEAR=1995
DGENRE=Rock
TTITLE0=Sara
TTITLE1=Tirando A Matar
TTITLE2=El Niño Sin Amor
TTITLE3=Es Lo Mejor
TTITLE4=Presta
TTITLE5=Indocumentado
TTITLE6=FZ. 10
TTITLE7=Abuso De Autoridad
TTITLE8=Pobre Soñador
TTITLE9=Ya Me Voy
TTITLE10=Triste Cancion
TTITLE11=ADO
TTITLE12=No Le Hagas Caso
TTITLE13=Chavo De Onda
EXTD=
EXTT0=
EXTT1=
EXTT2=
EXTT3=
EXTT4=
EXTT5=
EXTT6=
EXTT7=
EXTT8=
EXTT9=
EXTT10=
EXTT11=
EXTT12=
EXTT13=
PLAYORDER=
